<svg width="1024" height="1024" viewBox="0 0 1024 1024" fill="none" xmlns="http://www.w3.org/2000/svg">
<g clip-path="url(#clip0_116_2)">
<path d="M877.95 847.915C831.073 887.054 773.729 906.624 705.918 906.624H330.451C254.902 907.078 199.606 889.329 164.563 853.376C129.519 817.422 111.998 760.533 111.998 682.709V337.28C111.998 259.456 129.519 202.567 164.563 166.613C199.606 130.204 254.902 112.455 330.451 113.365H685.438C762.806 113.365 818.785 131.342 853.374 167.296C887.962 202.794 905.257 259.91 905.257 338.645V591.232C905.257 636.742 893.423 670.193 869.758 691.584C846.092 712.974 809.683 723.669 760.531 723.669C733.225 723.669 710.014 719.118 690.899 710.016C671.785 700.913 656.31 683.164 644.478 656.768C624.908 684.529 601.242 703.189 573.481 712.747C546.174 721.849 515.681 726.4 482.003 726.4H472.446C409.185 726.4 362.081 711.153 331.134 680.661C300.641 650.169 285.395 603.52 285.395 540.715V509.312C285.395 443.776 300.641 395.761 331.134 365.269C361.626 334.777 408.275 319.531 471.081 319.531H527.059C547.539 319.531 565.743 322.261 581.673 327.723C598.057 332.729 613.075 344.561 626.729 363.221C631.734 344.561 637.423 332.729 643.795 327.723C650.622 322.261 657.676 319.531 664.958 319.531C677.246 319.531 688.169 324.537 697.726 334.549C707.738 344.107 712.745 355.029 712.745 367.317V591.232C712.745 608.981 714.793 619.676 718.889 623.317C723.439 626.502 737.321 628.096 760.531 628.096C784.652 628.096 798.761 626.048 802.857 621.952C807.407 617.856 809.683 607.616 809.683 591.232V338.645C809.683 303.601 806.27 276.75 799.443 258.091C792.617 239.43 780.1 226.688 761.897 219.861C744.147 212.579 718.66 208.938 685.438 208.938H330.451C281.299 208.028 248.531 215.993 232.147 232.832C215.763 249.67 207.571 284.486 207.571 337.28V682.709C207.571 735.046 215.763 769.635 232.147 786.475C248.531 803.313 281.299 811.505 330.451 811.051H705.918C731.404 811.051 751.884 808.32 767.358 802.859C783.286 797.397 799.67 787.84 816.51 774.187C823.791 766.905 833.804 763.264 846.547 763.264C859.745 763.264 870.895 768.043 879.998 777.6C889.555 786.702 894.334 797.852 894.334 811.051C894.334 826.069 888.873 838.357 877.95 847.915ZM380.969 540.715C380.969 577.579 386.884 601.926 398.718 613.76C411.006 625.137 435.582 630.827 472.446 630.827H482.003C529.79 630.827 564.15 623.317 585.086 608.299C606.476 593.28 617.171 570.752 617.171 540.715V510.677C617.171 470.172 611.482 444.23 600.105 432.853C589.182 421.02 564.833 415.104 527.059 415.104H471.081C434.217 415.104 409.868 421.02 398.035 432.853C386.657 444.23 380.969 469.717 380.969 509.312V540.715Z" fill="black"/>
</g>
<defs>
<clipPath id="clip0_116_2">
<rect width="800" height="800" fill="white" transform="translate(112 112)"/>
</clipPath>
</defs>
</svg>
